<svg width="82" height="82" viewBox="0 0 82 82" fill="none" xmlns="http://www.w3.org/2000/svg">
<g clip-path="url(#clip0_81_104)">
<path d="M27.7207 79.579V82H0V54.2551H2.42102V79.579H27.7207Z" fill="white"/>
<path d="M82 54.2551V82H54.2551V79.579H79.579V54.2551H82Z" fill="white"/>
<path d="M82 0V27.7207H79.579V2.42102H54.2551V0H82Z" fill="white"/>
<path d="M27.7207 0V2.42102H2.42102V27.7207H0V0H27.7207Z" fill="white"/>
<g clip-path="url(#clip1_81_104)">
<path d="M63.7482 20.1035C62.9779 19.3681 61.9669 19.0005 60.8596 19.074C60.3541 19.0985 60.0652 18.9024 59.8004 18.4367C58.1394 15.5197 55.6841 14.0245 52.4824 14H52.3862C49.2327 14 46.7773 15.4707 45.0923 18.3631C44.7793 18.8779 44.4664 19.074 43.9127 19.074H43.8887C39.8927 19.0495 35.9208 19.0495 31.8044 19.0495H21.3089C20.8756 19.0495 20.3701 19.074 19.9127 19.172C18.2036 19.5642 17 21.133 17 22.9714V63.8575C17 66.4067 18.5647 68 21.0441 68H60.9077C63.4112 68 64.9759 66.4067 64.9759 63.833V51.3073C64.9759 42.1153 64.9759 32.6291 65 23.3146C65 22.0154 64.5426 20.8879 63.7482 20.1035ZM45.7663 20.2015C46.5848 17.8729 48.5587 16.1571 51.014 15.6178C53.8064 14.9805 56.334 15.9855 58.0672 18.4367C59.7763 20.8634 59.9208 23.4616 58.4524 26.207C58.2357 26.6237 57.9468 27.0159 57.6339 27.4081C56.3581 29.0749 55.7081 31.0359 55.6841 33.2174V34.8842H53.1565V32.0899C53.1565 30.1044 53.1565 28.1189 53.1565 26.1335C53.1565 25.6922 53.3009 25.3491 53.6138 25.0304C54.1675 24.4911 54.7212 23.9274 55.2508 23.3881L55.7563 22.8488C55.8766 22.7263 55.997 22.6282 56.0692 22.5057C56.3099 22.138 56.2859 21.7458 55.997 21.5007C55.7081 21.2556 55.2989 21.2556 55.01 21.5252C54.5045 22.0154 53.999 22.5302 53.5176 23.0449L53.3009 23.2655C53.1565 23.4126 53.012 23.5842 52.8676 23.7558L52.4824 24.197L50.653 22.3341C50.653 22.3341 50.5085 22.1625 50.4363 22.089C50.2437 21.9174 50.0752 21.7213 49.8826 21.5497C49.5456 21.2556 49.0883 21.2556 48.8235 21.5497C48.5587 21.8438 48.5827 22.2606 48.8716 22.5792C49.7623 23.5352 50.5085 24.2951 51.2307 24.9814C51.5918 25.3246 51.7362 25.6922 51.7362 26.207C51.7121 28.1434 51.7121 30.1044 51.7362 32.0654V34.8597H49.1605V33.5361C49.1846 31.1339 48.4624 29.0014 46.9218 27.0159C45.4052 25.0549 44.996 22.5057 45.7904 20.2015H45.7663ZM55.4915 36.4775L54.5527 41.2574H50.2678L49.3049 36.4775H55.4915ZM18.4443 22.8243C18.4684 21.6968 19.2387 20.7898 20.3701 20.5937C20.659 20.5447 20.9478 20.5202 21.1886 20.5202H44.1775V20.7408C43.6239 23.6577 44.2979 26.1825 46.1755 28.4866L46.4403 28.7808H18.5647L18.5165 28.6337C18.5165 28.6337 18.4925 28.5847 18.4925 28.5601C18.4684 28.4866 18.4443 28.4131 18.4443 28.3395V22.8243ZM63.5316 63.8084C63.5316 65.5733 62.5687 66.5538 60.8355 66.5538H21.1404C19.3831 66.5538 18.4443 65.5978 18.4443 63.8084V30.276H46.344C47.1384 30.276 47.2106 30.325 47.4273 31.0849C47.6921 32.0654 47.6921 33.0213 47.6921 33.9528V34.9578C47.7161 35.5216 47.7884 36.1098 47.9087 36.7717C48.1735 38.1198 48.4383 39.468 48.7031 40.8162L48.9198 41.8212C49.0642 42.6055 49.2568 42.7526 50.0512 42.7771H54.7452C55.5637 42.7771 55.7563 42.6055 55.9248 41.8212L56.1896 40.473C56.5266 38.9532 56.8395 37.3845 57.1284 35.8157C57.1765 35.448 57.1765 35.0313 57.1525 34.6146C57.1525 34.3205 57.1284 34.0018 57.1525 33.6832C57.2247 32.8743 57.321 32.0899 57.4173 31.3055L57.4895 30.8643C57.5376 30.374 57.8505 30.276 58.0913 30.276H63.4834V30.6927C63.5316 30.8643 63.5316 31.0113 63.5316 31.1584V63.8084ZM63.5316 28.8298H59.4634C59.319 28.8298 59.1986 28.8298 59.0782 28.8298H58.5968L58.7412 28.5356C60.9077 24.7363 60.8837 24.2951 60.7874 22.2851C60.7874 21.8684 60.7633 21.4026 60.7392 20.8143V20.6673H60.8836C61.3892 20.4957 61.9669 20.6182 62.4483 20.9369C63.002 21.2801 63.3631 21.8684 63.4834 22.4566C63.5075 22.7018 63.5316 22.9714 63.5316 23.2165V28.8543V28.8298Z" fill="#336AEA"/>
<path d="M50.5807 50.4984C51.1825 50.2043 51.5436 49.714 51.664 49.0767C51.8325 48.1207 50.7492 46.2823 49.8586 45.9637C49.2568 45.7676 48.7031 45.8656 48.1013 46.2578C47.7884 46.4539 47.4513 46.5765 47.0662 46.2088C46.1996 45.3754 45.1645 44.7626 43.9609 44.3704C43.5757 44.2478 43.4072 44.0027 43.4072 43.5615C43.3591 41.9682 42.7332 41.3309 41.1204 41.3309H41C41 41.3309 40.8315 41.3554 40.7593 41.3309C40.0612 41.3064 39.4353 41.5025 39.0501 41.9437C38.665 42.3359 38.4965 42.8997 38.5687 43.488C38.6409 44.0762 38.2798 44.2723 37.9428 44.3949C36.8114 44.7626 35.8004 45.3509 34.9819 46.1353C34.669 46.4294 34.3561 46.552 33.8746 46.2578C33.6339 46.1107 33.345 46.0127 33.0562 45.9146C32.9839 45.8901 32.9117 45.8656 32.8395 45.8411V45.8901H32.7192C32.7192 45.8901 32.5988 45.8901 32.5747 45.8656C32.0451 45.7921 31.323 46.3804 30.7934 47.3118C30.2638 48.2433 30.1434 49.1747 30.4564 49.5915C30.7693 49.9591 31.1545 50.2778 31.5396 50.5719L31.5878 50.621C31.8044 50.768 32.0451 50.9641 31.9488 51.3808C31.66 52.6309 31.66 53.8811 31.9488 55.2537C31.997 55.4743 31.8285 55.7195 31.7081 55.891C31.6118 56.0381 31.5155 56.0871 31.4193 56.1362C31.3711 56.1362 31.347 56.1607 31.323 56.1852C30.2879 56.798 30.0231 57.7785 30.6249 58.8325C30.7212 59.0286 30.8415 59.2247 30.9378 59.3963L31.01 59.5433C31.7563 60.8425 32.6229 61.0876 33.9228 60.3522C34.0913 60.2297 34.2357 60.2052 34.3801 60.2052C34.6209 60.2052 34.7894 60.3032 35.006 60.4503C35.8485 61.0141 36.7392 61.6269 37.678 62.0681C38.3039 62.3622 38.6409 62.6564 38.6168 63.4407C38.6168 63.9555 38.7853 64.4212 39.1224 64.7399C39.4353 65.0585 39.9167 65.2301 40.4463 65.2546H41.2889C42.7813 65.2546 43.4313 64.5928 43.4313 63.0976C43.4313 62.5828 43.6239 62.3377 44.1053 62.1906C45.0682 61.8965 46.007 61.3572 46.8736 60.5728C47.3069 60.2052 47.6921 60.0336 48.342 60.4258C48.8475 60.7199 49.329 60.8425 49.7623 60.7199C50.2197 60.5973 50.6289 60.2542 50.9418 59.6904C51.014 59.5433 51.1103 59.3963 51.1825 59.2492L51.2788 59.1021C52.0491 57.7294 51.8566 56.8715 50.5085 56.0626C50.1715 55.8665 49.9789 55.6214 50.0993 55.1312C50.34 53.9546 50.34 52.7535 50.0993 51.5769C49.9789 51.0377 50.1234 50.719 50.6048 50.4984H50.5807ZM50.0271 49.1012C49.8345 49.2238 49.666 49.3218 49.4975 49.4199C48.7272 49.9101 48.4383 50.5964 48.6068 51.5034C48.8475 52.6555 48.8475 53.832 48.6309 55.0086C48.4383 56.0381 48.7031 56.6509 49.5938 57.2147C49.7141 57.2882 49.8345 57.3618 49.9789 57.4598L50.3641 57.7049L49.4253 59.3963L48.4624 58.857C47.7402 58.4648 47.0903 58.5138 46.5125 59.0041C45.3089 60.0091 44.2016 60.6709 43.0461 61.0386C42.2277 61.2837 42.011 62.0436 41.9629 62.6318V63.7594H40.013V62.8525C39.989 61.7739 39.5316 61.1856 38.5446 60.8915C37.5817 60.5973 36.7392 60.1071 36.0652 59.4698C35.0301 58.4893 34.0672 58.3913 33.008 59.1511C32.9599 59.2002 32.8877 59.2247 32.8154 59.2492C32.7914 59.2492 32.7432 59.2737 32.671 59.2982L32.5506 59.3472L31.6118 57.7049L31.9729 57.4843C32.1414 57.3618 32.2618 57.2882 32.4062 57.1902C33.2487 56.6999 33.5617 56.0136 33.3691 55.0576C33.1284 53.9056 33.1284 52.7535 33.345 51.6014C33.5617 50.5719 33.2487 49.8856 32.3581 49.3463C32.2377 49.2728 32.0933 49.1993 31.9488 49.1012L31.6359 48.9051L32.5506 47.2383L32.9599 47.4344C33.1284 47.5324 33.2728 47.606 33.4413 47.704C34.2116 48.1452 34.9338 48.0717 35.6078 47.5079C36.5226 46.699 37.5577 46.0862 38.7372 45.6695C39.5797 45.3509 39.989 44.7381 40.013 43.7821V42.8752H41.9629V43.8066C41.987 44.7381 42.4203 45.3509 43.2146 45.645C44.3942 46.0617 45.4293 46.6745 46.3922 47.5079C47.0662 48.0962 47.7884 48.1452 48.5827 47.6795C48.7031 47.606 48.8475 47.5324 49.016 47.4344L49.4253 47.2383L50.3641 48.9051L50.0271 49.1012Z" fill="#336AEA"/>
<path d="M33.0321 33.2664C32.9839 33.438 32.9117 33.5851 32.8154 33.7567V33.8057C31.4192 36.5265 30.0231 39.2719 28.6509 41.9927L28.6028 42.0663C28.6028 42.0663 28.5065 42.2624 28.4584 42.3604C28.2417 42.6791 27.8806 42.7771 27.5677 42.63C27.2066 42.4585 27.0862 42.0908 27.2066 41.6986C27.2547 41.576 27.3029 41.4535 27.3751 41.3309L28.7713 38.5365C29.7101 36.6736 30.6489 34.8352 31.5877 32.9723C31.8044 32.5556 31.997 32.384 32.2858 32.3595C32.5506 32.3595 32.7673 32.4821 32.9117 32.6782C33.0562 32.8497 33.0802 33.0703 33.0321 33.2664Z" fill="#336AEA"/>
<path d="M39.2186 37.2619C39.2186 37.4825 39.0983 37.6786 38.9057 37.8257C37.7984 38.6591 36.5707 39.517 35.0782 40.571C34.6931 40.8406 34.2598 40.7671 34.019 40.4239C33.8024 40.0563 33.8987 39.6641 34.2598 39.3699C34.7171 39.0268 35.1745 38.7081 35.6319 38.3894C35.8967 38.2179 36.1615 38.0218 36.4022 37.8502C36.5226 37.7521 36.6429 37.6786 36.7633 37.556L37.1966 37.2374L36.7392 36.9187C36.7392 36.9187 36.5226 36.7471 36.4263 36.6491C36.1855 36.502 35.9448 36.3304 35.7282 36.1588C35.2227 35.8157 34.7171 35.448 34.2357 35.0803C33.8505 34.8107 33.7783 34.345 34.0431 33.9773C34.1635 33.8057 34.3561 33.7076 34.5486 33.7076C34.7171 33.7076 34.8856 33.7567 35.0542 33.8792C35.8726 34.443 36.667 35.0313 37.4854 35.5951L38.5446 36.3549C38.5446 36.3549 38.7613 36.502 38.8816 36.6001C39.0983 36.7962 39.2427 37.0413 39.2186 37.2619Z" fill="#336AEA"/>
<path d="M26.0271 39.4435C26.316 39.6641 26.3882 40.0808 26.2197 40.3749C26.0271 40.6936 25.6419 40.8162 25.2809 40.6446C25.1846 40.5955 25.0883 40.522 24.992 40.473L24.0772 39.8112C23.2106 39.2229 22.3681 38.6101 21.5015 37.9973C21.1645 37.7276 20.9719 37.4825 20.9719 37.2374C20.9719 36.9187 21.2849 36.6491 21.5256 36.4775C22.8977 35.4725 24.0291 34.6636 25.1123 33.9283C25.2809 33.8057 25.4734 33.7322 25.6179 33.7322C25.8345 33.7322 26.003 33.8302 26.1715 34.0508C26.4122 34.3695 26.34 34.7862 25.9549 35.1049C25.8827 35.1784 25.7623 35.2519 25.666 35.3255L24.9198 35.8647C24.4865 36.1834 24.0291 36.502 23.5958 36.8207C23.5236 36.8697 23.4514 36.9433 23.3551 37.0168L23.0421 37.2864L23.8124 37.8502C24.1976 38.1198 24.5346 38.365 24.8957 38.6346C25.0401 38.7081 25.1605 38.8062 25.3049 38.9042C25.5456 39.0758 25.7864 39.2474 26.0271 39.4435Z" fill="#336AEA"/>
<path d="M33.6098 22.4077C33.0321 21.8194 32.2377 21.5007 31.4193 21.5007H31.3952C29.662 21.5007 28.3139 22.8979 28.3139 24.6628C28.3139 26.4276 29.7101 27.8739 31.4433 27.8739H31.4674C32.2377 27.8739 33.0321 27.5307 33.6098 26.9179C34.2116 26.3296 34.5486 25.4962 34.5486 24.6873C34.5486 23.8294 34.2116 23.0205 33.6098 22.4077ZM31.3711 26.4031C30.9619 26.3786 30.5527 26.207 30.2397 25.8884C29.9268 25.5452 29.7342 25.104 29.7342 24.6628C29.7342 23.7313 30.5045 22.9469 31.4193 22.9469C31.8766 22.9715 32.2859 23.143 32.5988 23.4617C32.9117 23.7804 33.0802 24.2216 33.0802 24.6873C33.0802 25.6433 32.334 26.4031 31.3711 26.4031Z" fill="#336AEA"/>
<path d="M40.8074 22.4077C40.2297 21.8194 39.4353 21.4762 38.6168 21.4762H38.5928C36.8836 21.5007 35.4875 22.9224 35.4875 24.6628C35.4875 26.4031 36.9077 27.8493 38.6168 27.8738H38.6409C39.4112 27.8738 40.2056 27.5307 40.7833 26.9424C41.3611 26.3541 41.7222 25.5207 41.7222 24.6873C41.7222 23.8539 41.4092 23.0205 40.8074 22.4077ZM39.7723 25.8884C39.4594 26.207 39.0261 26.3786 38.5687 26.3786C37.7021 26.3786 36.9318 25.5697 36.9318 24.6628C36.9559 24.197 37.1244 23.7803 37.4373 23.4617C37.7743 23.143 38.1835 22.9469 38.6409 22.9469C39.0742 22.9714 39.5075 23.143 39.7964 23.4617C40.1334 23.8048 40.3019 24.2461 40.3019 24.7118C40.3019 25.153 40.1093 25.5697 39.7964 25.8884H39.7723Z" fill="#336AEA"/>
<path d="M24.2457 21.5007H24.2217C22.4885 21.5007 21.1404 22.8979 21.1404 24.6628C21.1404 26.4276 22.5125 27.8493 24.2698 27.8739C25.0642 27.8739 25.8586 27.5307 26.4363 26.9424C27.014 26.3541 27.3751 25.4962 27.351 24.6873C27.351 22.9224 25.9549 21.5007 24.2457 21.5007ZM24.1976 26.4031C23.7884 26.3786 23.3791 26.207 23.0662 25.8884C22.7532 25.5697 22.5607 25.1285 22.5607 24.6628C22.5607 24.1971 22.7532 23.7558 23.0662 23.4372C23.3551 23.143 23.7884 22.9469 24.2457 22.9469C25.1605 22.9715 25.9067 23.7558 25.9067 24.7118C25.9067 25.6678 25.1605 26.4031 24.1976 26.4031Z" fill="#336AEA"/>
<path d="M44.7312 49.2973C43.7201 48.3169 42.3962 47.7776 41 47.7776H40.8556C39.4112 47.8021 38.0632 48.4149 37.0521 49.4934C36.0652 50.572 35.5356 51.9691 35.5837 53.4399C35.6078 54.9351 36.2578 56.3813 37.3169 57.3863C38.328 58.3668 39.6279 58.8815 40.9759 58.857C44.009 58.759 46.4162 56.3078 46.4162 53.3663V53.2438C46.3681 51.724 45.7663 50.3268 44.7312 49.2973ZM43.8164 56.1607C43.0702 56.9451 42.0832 57.3863 41.1203 57.3863C38.8094 57.3863 37.004 55.5969 37.004 53.3173C37.004 52.2388 37.4132 51.2338 38.1595 50.4494C38.9298 49.665 39.9408 49.2483 41.0241 49.2483C43.1665 49.2483 44.996 51.1112 44.996 53.3173C44.996 54.3468 44.5627 55.3763 43.8164 56.1607Z" fill="#336AEA"/>
</g>
</g>
<defs>
<clipPath id="clip0_81_104">
<rect width="82" height="82" fill="white"/>
</clipPath>
<clipPath id="clip1_81_104">
<rect width="48" height="54" fill="white" transform="translate(17 14)"/>
</clipPath>
</defs>
</svg>
