<svg width="82" height="82" viewBox="0 0 82 82" fill="none" xmlns="http://www.w3.org/2000/svg">
<g clip-path="url(#clip0_81_70)">
<path d="M27.7207 79.579V82H0V54.2551H2.42102V79.579H27.7207Z" fill="white"/>
<path d="M82 54.2551V82H54.2551V79.579H79.579V54.2551H82Z" fill="white"/>
<path d="M82 0V27.7207H79.579V2.42102H54.2551V0H82Z" fill="white"/>
<path d="M27.7207 0V2.42102H2.42102V27.7207H0V0H27.7207Z" fill="white"/>
<path d="M54.5214 67.4981C52.2941 67.4981 50.0667 67.4981 47.8394 67.4981C47.331 67.4981 47.0405 67.595 46.8468 68.1518C46.1689 70.2339 44.3773 71.4444 42.0289 71.4686C38.47 71.4686 34.8869 71.4686 31.328 71.4686C28.2533 71.4686 25.1544 71.4686 22.0797 71.4686C19.2713 71.4686 17.1651 69.4107 17.1166 66.6266C17.1166 65.5129 17.0682 64.3508 17.2377 63.2613C17.9398 58.6372 21.8376 55.272 26.5102 55.1993C30.2144 55.1509 33.9185 55.1993 37.6227 55.1993C38.3006 55.1993 38.9785 55.272 39.6079 55.4172C40.0921 55.5141 40.3827 55.4172 40.7458 55.0783C42.4647 53.4078 44.571 52.6331 46.9436 52.6331C50.1152 52.6331 53.2867 52.6331 56.434 52.6331C61.5666 52.6331 65.2708 56.2404 65.4402 61.3729C65.4644 62.1961 65.4644 63.0434 65.3434 63.8666C65.0286 65.876 63.3339 67.3771 61.3003 67.4981C61.155 67.4981 61.034 67.4981 60.8887 67.4981C58.7582 67.4981 56.6519 67.4981 54.5214 67.4981ZM32.0543 69.8707C35.4196 69.8707 38.7606 69.8707 42.1258 69.8707C44.1352 69.8707 45.5394 68.515 45.5878 66.5297C45.5878 65.5855 45.5879 64.6413 45.491 63.7213C45.1036 59.9203 41.8353 56.8698 38.01 56.8214C34.1364 56.773 30.287 56.7488 26.4134 56.8214C22.1039 56.8941 18.7871 60.3319 18.7387 64.6413C18.7387 65.2224 18.7387 65.8276 18.7387 66.4087C18.7387 68.5876 20.0703 69.8949 22.2734 69.8949C25.5418 69.8949 28.8102 69.8949 32.1028 69.8949L32.0543 69.8707ZM47.1131 65.8518C47.2826 65.9003 47.331 65.9487 47.3794 65.9487C51.9309 65.9487 56.5067 65.9971 61.0582 65.9487C62.6318 65.9487 63.7939 64.6655 63.8424 63.0677C63.8424 62.3414 63.8666 61.615 63.8424 60.8887C63.6245 57.233 60.695 54.3036 57.0393 54.2309C53.5288 54.1583 50.0183 54.2309 46.5078 54.2309C45.4184 54.2309 44.3773 54.5457 43.4331 55.0541C42.9005 55.3446 42.4163 55.732 41.8111 56.1435C45.7089 58.3709 47.3552 61.6393 47.1373 65.876L47.1131 65.8518Z" fill="#336AEA"/>
<path d="M32.9017 30.2144C32.9017 31.2312 32.9017 32.2238 32.9017 33.2165C32.9017 33.6522 32.9501 34.1849 32.4417 34.3059C32.1269 34.3785 31.6427 34.2333 31.3522 34.0396C29.7301 32.9501 28.108 31.8365 26.5344 30.6744C26.0018 30.287 25.4691 30.1418 24.8155 30.166C23.2176 30.1902 21.5955 30.166 19.9976 30.166C15.7124 30.166 12.323 27.2123 11.9114 22.9755C11.7419 21.1598 11.7419 19.3198 11.9114 17.504C12.3472 13.6062 15.6156 10.6283 19.5618 10.5557C23.847 10.4831 28.1565 10.4589 32.4417 10.5557C36.5332 10.6525 39.8258 13.8241 40.0921 17.9398C40.2131 19.804 40.2374 21.7166 39.971 23.5566C39.4868 26.9218 36.8721 29.4155 33.5553 30.0207C33.3374 30.0691 33.1438 30.1175 32.9017 30.166V30.2144ZM31.1343 31.9817C31.1343 31.9817 31.2554 31.9091 31.328 31.8849C31.328 31.1828 31.328 30.5049 31.328 29.8028C31.328 28.8344 31.5459 28.6165 32.4901 28.5923C35.589 28.4713 38.2521 26.026 38.5184 22.9513C38.6637 21.3292 38.6637 19.6829 38.5184 18.0609C38.2763 15.0588 36.17 12.783 33.2164 12.2988C32.2238 12.1294 31.1827 12.202 30.1659 12.202C26.607 12.202 23.0239 12.1536 19.465 12.2262C16.2935 12.2988 13.5577 14.962 13.4366 18.0367C13.364 19.5861 13.364 21.1598 13.4366 22.7092C13.6061 26.0018 16.4145 28.5923 19.7071 28.6165C20.8934 28.6165 22.0797 28.7134 23.2418 28.6165C25.2754 28.3986 27.0428 28.8586 28.5438 30.2628C28.8828 30.5775 29.3428 30.8196 29.7301 31.086C30.1901 31.4007 30.6501 31.7154 31.0859 32.0302L31.1343 31.9817Z" fill="#336AEA"/>
<path d="M50.9383 30.0691C50.3814 29.9481 49.9456 29.8754 49.5099 29.7302C46.5804 28.7133 44.7647 26.6797 44.4499 23.5808C44.2804 21.8618 44.2804 20.0945 44.4499 18.3514C44.7889 15.0588 47.6941 12.3956 50.9867 12.1535C52.2214 12.0567 53.4561 12.1051 54.6908 12.1051C57.354 12.1051 60.0171 12.0809 62.656 12.1051C65.997 12.1535 68.5875 13.9209 69.7012 16.8987C69.8949 17.4314 70.0643 17.9882 70.0885 18.5208C70.137 20.2155 70.258 21.9103 70.0885 23.5808C69.7254 27.2849 66.5781 30.0207 62.8497 30.0691C61.276 30.0691 59.6781 30.0691 58.1045 30.0691C57.7413 30.0691 57.3055 30.1902 56.9908 30.408C55.4656 31.4249 53.9887 32.4659 52.4877 33.507C52.1488 33.7491 51.8098 34.0638 51.3256 33.7975C50.8656 33.5312 50.8898 33.0954 50.8898 32.6596C50.8898 31.8122 50.8898 30.9407 50.8898 30.0449L50.9383 30.0691ZM52.5361 31.5217C52.8509 31.328 53.0688 31.2312 53.2624 31.0859C54.2066 30.4323 55.175 29.8028 56.095 29.1007C56.7245 28.6165 57.3782 28.4228 58.1771 28.4228C59.8718 28.4712 61.5665 28.4712 63.237 28.4228C66.0212 28.3018 68.3696 26.0744 68.5875 23.3387C68.7086 21.8376 68.7086 20.3366 68.5875 18.8356C68.3454 15.9545 65.9486 13.7272 63.0434 13.703C59.2182 13.6546 55.3687 13.6304 51.5435 13.703C48.3962 13.7514 45.9994 16.2693 45.9752 19.4166C45.9752 20.4576 45.9752 21.4987 45.9752 22.5639C45.9994 25.8565 48.1783 28.1807 51.4467 28.447C52.3424 28.5196 52.5361 28.7375 52.5603 29.6575C52.5603 30.2386 52.5603 30.8196 52.5603 31.5217H52.5361Z" fill="#336AEA"/>
<path d="M32.127 54.2793C27.1881 54.2793 23.2418 50.3573 23.2902 45.3457C23.3387 40.5521 27.1155 36.6543 32.0785 36.5817C36.8964 36.509 40.9395 40.5521 40.9637 45.4184C40.9637 50.2846 37.0174 54.2793 32.127 54.2793ZM24.8639 45.37C24.8639 49.4615 28.1081 52.7541 32.127 52.7299C36.0974 52.7299 39.39 49.4131 39.3658 45.4184C39.3658 41.3511 36.1217 38.1553 32.1028 38.1553C28.1081 38.1553 24.8639 41.3995 24.8639 45.37Z" fill="#336AEA"/>
<path d="M51.713 51.9067C47.2099 51.9067 43.6268 48.2752 43.651 43.7237C43.651 39.3174 47.3067 35.7101 51.7372 35.7101C56.1919 35.7101 59.8476 39.39 59.8234 43.8205C59.8234 48.2994 56.1919 51.9067 51.713 51.9067ZM58.2255 43.8447C58.2255 40.2374 55.3445 37.3322 51.7614 37.308C48.1299 37.308 45.1762 40.2132 45.2005 43.8205C45.2005 47.3794 48.1541 50.3331 51.713 50.3331C55.2961 50.3331 58.2255 47.4036 58.2255 43.8447Z" fill="#336AEA"/>
</g>
<defs>
<clipPath id="clip0_81_70">
<rect width="82" height="82" fill="white"/>
</clipPath>
</defs>
</svg>
