<svg width="82" height="82" viewBox="0 0 82 82" fill="none" xmlns="http://www.w3.org/2000/svg">
<g clip-path="url(#clip0_81_89)">
<path d="M27.7207 79.579V82H0V54.2551H2.42102V79.579H27.7207Z" fill="white"/>
<path d="M82 54.2551V82H54.2551V79.579H79.579V54.2551H82Z" fill="white"/>
<path d="M82 0V27.7207H79.579V2.42102H54.2551V0H82Z" fill="white"/>
<path d="M27.7207 0V2.42102H2.42102V27.7207H0V0H27.7207Z" fill="white"/>
<g clip-path="url(#clip1_81_89)">
<path d="M21.0171 35.8365C21.0698 34.689 21.1226 33.6459 21.2017 32.6028C21.2017 32.2377 21.2809 31.8465 21.36 31.4814C21.4655 30.8816 21.7294 30.6469 22.3625 30.6469C23.1011 30.6469 23.8398 30.6469 24.552 30.6469C25.1851 29.1083 25.8183 27.6479 26.5041 25.9789C26.0557 25.5877 25.5281 25.1183 25.0005 24.6229C24.4201 24.0752 24.3937 23.7883 24.8686 23.1625C26.1612 21.3892 27.7176 19.8766 29.5115 18.6249C29.9599 18.3119 30.2765 18.338 30.6986 18.7292C31.1734 19.1725 31.6219 19.668 32.0967 20.0852C32.2286 20.1896 32.4924 20.2678 32.6243 20.2156C34.0225 19.668 35.3942 19.0943 36.7924 18.5205C36.7924 18.5205 36.8188 18.4945 36.8979 18.4162C36.8979 17.7382 36.8979 17.008 36.8979 16.2778C36.8979 15.5737 37.1089 15.3129 37.7948 15.2086C39.958 14.8696 42.0948 14.8696 44.2579 15.2086C44.9438 15.3129 45.1549 15.5737 45.1549 16.2778C45.1549 17.008 45.1549 17.7382 45.1549 18.4945C45.5506 18.6249 45.8935 18.7031 46.2101 18.8335C47.2125 19.2507 48.2149 19.668 49.1646 20.1374C49.5339 20.3199 49.745 20.3199 50.0352 20.007C50.4309 19.5637 50.8529 19.1725 51.3014 18.7552C51.7762 18.3119 52.0664 18.2858 52.594 18.6509C54.3351 19.8766 55.8388 21.3631 57.105 23.0582C57.659 23.7883 57.6326 24.0491 56.9995 24.675C56.5247 25.1444 56.0234 25.5877 55.575 26.005C56.2345 27.5958 56.8676 29.0822 57.5271 30.6469C58.1602 30.6469 58.8725 30.6469 59.5848 30.6469C60.3498 30.6469 60.6136 30.8555 60.6927 31.6118C60.7982 32.7853 60.8774 33.9589 60.9565 35.1063C60.9565 35.3149 60.9565 35.5236 60.9565 35.6018C61.5896 35.8886 62.1172 36.0973 62.6448 36.3581C64.0957 37.1143 65.5203 37.9228 66.9448 38.679C67.1294 38.7833 67.3141 38.8616 67.4988 38.992C68.211 39.4353 68.211 40.1394 67.4988 40.5306C65.6785 41.5476 63.8583 42.5386 62.0381 43.5035C61.7479 43.66 61.3522 43.7121 61.0093 43.7121C58.5823 43.7121 56.129 43.7121 53.702 43.7121C53.4646 43.7121 53.2008 43.7121 52.8578 43.7121C52.8578 44.4945 52.8315 45.1986 52.8578 45.9027C52.9106 46.9197 52.6996 47.8325 52.3302 48.7713C51.5652 50.675 50.9057 52.5787 50.1671 54.4824C49.8505 55.2648 49.9296 56.0471 49.956 56.8555C50.1143 56.8555 50.2462 56.8816 50.3517 56.9077C50.9321 56.9859 51.1695 57.2206 51.1959 57.8204C51.1959 58.1855 51.1959 58.5767 51.1959 58.9418C51.1959 61.1845 51.1959 63.4273 51.1959 65.67C51.1959 66.7131 50.9848 66.9478 49.9296 66.9478C45.445 66.9478 40.9868 66.9478 36.5022 66.9478C35.447 66.9478 35.2359 66.7131 35.2096 65.6961C35.2096 63.1926 35.2096 60.663 35.2096 58.1595C35.2096 57.1946 35.3678 57.012 36.4494 56.8816C36.4494 55.8907 36.7132 54.8997 36.1592 53.9087C34.7611 51.5095 33.4421 49.0842 32.044 46.659C31.6483 45.9548 31.3845 45.2507 31.49 44.4423C31.49 44.2076 31.49 43.999 31.49 43.686C31.1734 43.686 30.9096 43.686 30.6722 43.686C26.5833 43.686 22.4944 43.686 18.3791 43.686C17.5085 43.686 16.6908 43.5817 15.9257 43.1384C14.3957 42.2517 13.6307 40.4523 14.0791 38.7573C14.5276 37.0361 16.0313 35.8365 17.8779 35.7843C18.8803 35.7583 19.9091 35.7843 20.9643 35.7843L21.0171 35.8365ZM33.1255 43.7643C33.1255 44.4945 32.9936 45.0943 33.3366 45.6941C34.8402 48.328 36.3175 50.9619 37.7948 53.5958C38.0059 53.9869 38.1114 54.4564 38.1378 54.8997C38.1905 55.5516 38.1378 56.2297 38.1378 56.9077H48.2941C48.2941 56.6208 48.2941 56.3601 48.2941 56.1254C48.2149 55.3169 48.426 54.5607 48.7162 53.8044C49.5076 51.7442 50.2726 49.684 51.0112 47.6239C51.1431 47.2848 51.1959 46.9197 51.1959 46.5807C51.1959 43.66 51.1959 40.7653 51.1959 37.8445C51.1959 37.6359 51.1959 37.4273 51.1695 37.2186C51.0904 36.7232 50.721 36.3841 50.2462 36.3059C49.745 36.2277 49.3757 36.4624 49.1382 36.8535C49.0591 36.9839 49.0063 37.1665 48.9272 37.323C48.7425 37.662 48.426 37.8706 48.083 37.7402C47.8192 37.6359 47.6082 37.3751 47.4499 37.1404C47.3444 37.01 47.4235 36.7753 47.3972 36.5928C47.318 36.0712 46.8959 35.6539 46.3947 35.6279C45.8671 35.5757 45.3923 35.9147 45.2604 36.4363C45.234 36.5406 45.234 36.6449 45.2076 36.7492C45.0757 37.2447 44.7592 37.5055 44.3371 37.4794C43.915 37.4533 43.6512 37.1143 43.6248 36.5928C43.6248 35.9669 43.6248 35.341 43.6248 34.7151C43.6248 34.5587 43.6248 34.3761 43.6248 34.2196C43.5457 33.5938 43.0708 33.1504 42.4905 33.1504C41.8837 33.1504 41.4353 33.6198 41.4089 34.2979C41.4089 34.9238 41.4089 35.5496 41.4089 36.1755C41.4089 36.3581 41.4089 36.5667 41.3825 36.7492C41.3034 37.1665 41.0659 37.4533 40.6175 37.4533C40.1954 37.4533 39.9316 37.2447 39.8261 36.8535C39.7997 36.7232 39.7733 36.5667 39.7469 36.4102C39.5887 35.8626 39.1402 35.5496 38.5598 35.6018C37.9531 35.6539 37.5838 36.0712 37.5838 36.7753C37.5838 38.679 37.5838 40.5827 37.5838 42.4864C37.5838 43.5556 37.3464 43.7904 36.2911 43.7904C35.2887 43.7904 34.3126 43.7904 33.2311 43.7904L33.1255 43.7643ZM52.0401 20.2417C51.5125 20.7633 51.0112 21.2848 50.4836 21.8064C50.0088 22.2758 49.7714 22.328 49.191 21.9629C47.661 21.0241 46.0254 20.346 44.2843 19.9548C43.7039 19.8245 43.572 19.6158 43.572 19.016C43.572 18.4423 43.572 17.8947 43.572 17.3209C43.572 16.9037 43.4665 16.6951 43.0181 16.6951C42.0684 16.6951 41.1187 16.6168 40.169 16.6168C39.615 16.6168 39.0874 16.6951 38.4807 16.7472C38.4807 17.5296 38.4807 18.2598 38.4807 18.9639C38.4807 19.6419 38.3488 19.8245 37.6893 19.9809C35.9746 20.3721 34.3918 21.0241 32.8881 21.9368C32.255 22.328 32.044 22.2758 31.5164 21.7542C31.0151 21.2588 30.5139 20.7372 30.0391 20.2417C28.4563 21.4152 27.0317 22.8756 26.5041 23.7883C26.5041 23.8144 26.5041 23.8666 26.5569 23.8927C26.979 24.336 27.4274 24.7532 27.8495 25.1966C28.4826 25.8485 28.5354 26.0572 28.0606 26.8395C27.2955 28.0913 26.6888 29.3952 26.3195 30.8034C26.0029 32.0812 26.0821 32.2638 24.4201 32.2377C23.9189 32.2377 23.2594 32.1073 22.9692 32.3681C22.679 32.6289 22.7318 33.3069 22.7054 33.8024C22.679 34.4543 22.7054 35.1324 22.7054 35.7583H30.6722C30.6722 35.4453 30.6722 35.1845 30.6722 34.9498C30.6722 33.4373 30.936 32.003 31.5691 30.6208C33.6531 26.0311 38.4279 23.658 43.4138 24.7532C47.8984 25.7181 51.1695 29.682 51.4333 34.3761C51.4861 35.1585 52.172 35.8365 52.9634 35.8365C54.8891 35.8365 56.8148 35.8365 58.7406 35.8365C58.9516 35.8365 59.1363 35.8104 59.4792 35.7843C59.4265 34.663 59.3737 33.5938 59.2682 32.5506C59.2682 32.4463 58.978 32.2638 58.8197 32.2377C58.2394 32.2116 57.6854 32.2377 57.105 32.2377C56.34 32.2377 56.1026 32.0812 55.9443 31.351C55.5486 29.7342 54.9155 28.1956 54.0449 26.7873C53.6229 26.0832 53.6492 25.8485 54.256 25.2487C54.7308 24.7793 55.2057 24.3099 55.6805 23.8144C54.6517 22.4323 53.4646 21.3109 52.0928 20.2678L52.0401 20.2417ZM48.5051 35.1063C48.9536 34.9238 49.3229 34.7934 49.6658 34.6369C49.8769 31.9248 48.1094 28.5346 44.8383 26.9438C41.5672 25.353 37.7421 25.8485 34.9194 28.4564C32.9145 30.3079 31.6483 34.011 32.4133 35.8365C33.4685 35.8365 34.5501 35.8365 35.6316 35.8365C35.9746 35.8365 36.0537 35.6279 36.1592 35.3932C36.7132 34.324 37.8212 33.7763 39.0083 33.9589C39.2193 33.9849 39.404 34.011 39.5887 34.0632C40.0635 32.3942 40.9604 31.5857 42.2267 31.5075C43.6248 31.4553 44.4426 32.1595 45.1812 34.1153C46.4475 33.8024 47.5818 33.9589 48.4524 35.0802L48.5051 35.1063ZM36.8979 65.331H49.5339V58.5506H36.8979V65.331ZM22.0459 42.0953C22.2042 42.1213 22.2833 42.1474 22.3889 42.1474C26.7416 42.1474 31.0679 42.1474 35.4206 42.1474C35.8427 42.1474 35.9218 41.9388 35.8954 41.5998C35.8954 40.3741 35.8954 39.1223 35.8954 37.8967C35.8954 37.7663 35.8427 37.6098 35.8163 37.4794H22.0459V42.0953ZM60.6136 42.0953V37.4794H52.8842V42.0953H60.6136ZM20.384 39.7743C20.384 39.1484 20.384 38.5225 20.384 37.8967C20.384 37.5837 20.2784 37.4273 19.9355 37.4273C19.2232 37.4273 18.4846 37.4012 17.7723 37.4273C16.4797 37.5316 15.5828 38.5225 15.6092 39.7743C15.6092 41.0521 16.5061 42.017 17.7987 42.0953C18.4846 42.1474 19.1969 42.0953 19.8827 42.1213C20.2521 42.1213 20.3576 41.9649 20.3576 41.6259C20.3576 41 20.3576 40.3741 20.3576 39.7482L20.384 39.7743ZM65.573 39.8004C64.3859 39.1745 63.3571 38.6008 62.2491 38.001V41.5998C63.3571 41 64.4123 40.4263 65.573 39.8004Z" fill="#336AEA"/>
</g>
</g>
<defs>
<clipPath id="clip0_81_89">
<rect width="82" height="82" fill="white"/>
</clipPath>
<clipPath id="clip1_81_89">
<rect width="54" height="52" fill="white" transform="translate(14 15)"/>
</clipPath>
</defs>
</svg>
