<svg width="82" height="82" viewBox="0 0 82 82" fill="none" xmlns="http://www.w3.org/2000/svg">
<g clip-path="url(#clip0_81_119)">
<path d="M27.7207 79.579V82H0V54.2551H2.42102V79.579H27.7207Z" fill="white"/>
<path d="M82 54.2551V82H54.2551V79.579H79.579V54.2551H82Z" fill="white"/>
<path d="M82 0V27.7207H79.579V2.42102H54.2551V0H82Z" fill="white"/>
<path d="M27.7207 0V2.42102H2.42102V27.7207H0V0H27.7207Z" fill="white"/>
<g clip-path="url(#clip1_81_119)">
<path d="M31.7677 16.6699C33.4829 16.6699 35.1176 16.5631 36.7524 16.6699C40.0754 16.9636 43.0501 18.2986 45.7568 20.1942C47.4452 21.3689 48.9191 22.7573 50.3395 24.2257C52.6174 26.602 55.5117 27.9369 58.7276 28.4976C61.4342 28.9782 64.1142 28.9248 66.7941 28.3107C67.598 28.1238 68.1608 28.7379 67.9464 29.5655C67.6516 30.6335 67.3032 31.7015 66.9816 32.7694C64.9181 39.4442 62.8278 46.1189 60.8179 52.8204C60.5767 53.6481 60.1479 54.0486 59.2903 54.2087C54.4933 55.0631 49.8839 54.716 45.5156 52.3932C43.8273 51.5121 42.3534 50.3374 41.067 48.9223C38.5747 46.199 35.6 44.1966 32.0625 43.0486C29.463 42.1942 26.8367 42.1408 24.1836 42.7282C23.7816 42.8083 23.6208 42.9952 23.5137 43.3689C21.0213 51.5388 18.5022 59.682 15.9831 67.8252C15.6883 68.7864 15.2864 69.1335 14.6432 68.9466C14.0268 68.7597 13.866 68.2257 14.1608 67.2646C19.5206 49.8568 24.8804 32.449 30.2402 15.0413C30.267 14.9078 30.3206 14.801 30.3474 14.6675C30.5618 14.1602 31.0442 13.8932 31.5266 14.0267C32.0089 14.1602 32.2769 14.6408 32.1429 15.2015C32.0357 15.7087 31.8481 16.216 31.7409 16.6432L31.7677 16.6699ZM24.5856 40.699C24.8804 40.6723 25.0144 40.6456 25.1752 40.6456C27.3191 40.3519 29.4362 40.4587 31.4998 40.966C35.9216 42.0607 39.4859 44.517 42.5945 47.7743C43.2913 48.4952 44.0417 49.1893 44.8457 49.75C48.8655 52.5534 53.3677 53.1675 58.138 52.5C58.7811 52.4199 59.0223 52.1262 59.2099 51.5388C61.3003 44.6772 63.4174 37.8422 65.5345 31.0073C65.5881 30.8471 65.5881 30.7136 65.6149 30.6335C63.6854 30.6335 61.7826 30.767 59.9335 30.6335C55.4849 30.2597 51.6794 28.4442 48.5439 25.2403C47.4452 24.1189 46.2928 22.9976 45.0065 22.0631C41.0938 19.233 36.806 17.8447 31.9285 18.8058C31.473 18.8859 31.2586 19.0995 31.1246 19.5267C29.1682 25.9612 27.1851 32.3689 25.202 38.7767C25.0144 39.3908 24.8268 40.0049 24.6124 40.7257L24.5856 40.699Z" fill="#336AEA"/>
<path d="M54.2789 36.2403C54.2789 36.881 53.9305 37.2548 53.2873 37.3883C51.465 37.7888 49.6427 38.1626 47.8203 38.5631C45.1136 39.1505 42.407 39.7111 39.7003 40.2985C38.6551 40.5121 38.1191 39.9514 38.4139 38.9369C39.7002 34.7184 41.0134 30.4733 42.3266 26.2548C42.5945 25.3738 43.3985 25.1602 44.0685 25.8277C47.338 29.0849 50.6074 32.3689 53.8769 35.6529C54.0645 35.8665 54.1985 36.1335 54.2789 36.267V36.2403ZM43.6933 28.2573C42.7017 31.5145 41.6834 34.7451 40.6382 38.1359C44.3097 37.3349 47.7936 36.5874 51.3042 35.8398C48.7315 33.2767 46.2392 30.7937 43.6933 28.2573Z" fill="#336AEA"/>
</g>
</g>
<defs>
<clipPath id="clip0_81_119">
<rect width="82" height="82" fill="white"/>
</clipPath>
<clipPath id="clip1_81_119">
<rect width="54" height="55" fill="white" transform="translate(14 14)"/>
</clipPath>
</defs>
</svg>
