<svg width="144" height="50" viewBox="0 0 144 50" fill="none" xmlns="http://www.w3.org/2000/svg">
<g clip-path="url(#clip0_41_218)">
<path d="M0 49.8699V0H50.482V49.9953C47.9269 49.9953 45.4603 50.0166 42.9961 49.9716C42.6328 49.9645 42.1906 49.7375 41.9253 49.4726C37.635 45.1989 33.3662 40.9063 29.0998 36.6113C29.0234 36.5356 29.0019 36.4056 28.9445 36.2731C33.9566 31.3609 38.9783 26.4415 43.8326 21.683C37.7306 15.6568 31.9059 9.90256 26.0381 4.10577C24.8382 5.36635 23.3898 6.88946 21.7813 8.58285C25.921 12.5964 30.1993 16.7447 34.6689 21.0752C29.4034 26.2097 24.3698 31.1173 19.1999 36.1596C23.7722 40.7549 28.1844 45.1918 32.838 49.8676H0V49.8699ZM6.52267 33.7354C8.24834 35.4785 9.75174 36.9992 11.0042 38.2669C16.7166 32.6711 22.5342 26.9689 28.1605 21.4559C22.4529 15.775 16.6783 10.0279 11.1524 4.52911C9.67525 5.92924 8.12645 7.39795 6.32429 9.10316C10.4759 13.1971 14.685 17.3454 18.9514 21.5529C14.7519 25.6681 10.5596 29.7763 6.52028 33.733L6.52267 33.7354Z" fill="#336AEA"/>
<path d="M76.0276 21.2242H73.8311V27.2031H65.731V3.427H77.2992C79.5196 3.427 81.4532 3.78886 83.1 4.51494C84.7468 5.24101 86.0184 6.28164 86.9099 7.6392C87.8014 8.99675 88.2484 10.5837 88.2484 12.3954C88.2484 14.0935 87.8588 15.5764 87.082 16.8441C86.3028 18.1117 85.1818 19.1193 83.7191 19.8666L88.7646 27.2031H80.1148L76.03 21.2242H76.0276ZM79.2519 10.3377C78.7022 9.85054 77.88 9.60694 76.7805 9.60694H73.8287V15.1767H76.7805C77.88 15.1767 78.7022 14.9331 79.2519 14.4459C79.8017 13.9587 80.0765 13.2752 80.0765 12.3906C80.0765 11.5061 79.8017 10.8226 79.2519 10.3354V10.3377Z" fill="#3E3E3E"/>
<path d="M107.673 23.057H98.5427L96.9293 27.2006H88.6906L99.1928 3.42456H107.157L117.661 27.2006H109.286L107.673 23.057ZM105.443 17.2839L103.108 11.305L100.773 17.2839H105.441H105.443Z" fill="#3E3E3E"/>
<path d="M143.269 3.427L133.109 27.2031H125.145L114.984 3.427H123.704L129.435 17.3194L135.305 3.427H143.269Z" fill="#3E3E3E"/>
<path d="M65.9819 37.4794C65.817 37.3114 65.7357 37.1057 65.7357 36.8644C65.7357 36.6232 65.817 36.4198 65.9819 36.259C66.1468 36.0958 66.3452 36.0154 66.5794 36.0154C66.8137 36.0154 67.0144 36.0958 67.1841 36.259C67.3538 36.4222 67.4399 36.6232 67.4399 36.8644C67.4399 37.1057 67.3538 37.3114 67.1841 37.4794C67.0144 37.6473 66.8137 37.7324 66.5794 37.7324C66.3452 37.7324 66.1468 37.6496 65.9819 37.4794ZM65.9819 44.1891C65.817 44.0212 65.7357 43.8154 65.7357 43.5742C65.7357 43.3329 65.817 43.1295 65.9819 42.9687C66.1468 42.8055 66.3452 42.7251 66.5794 42.7251C66.8137 42.7251 67.0144 42.8055 67.1841 42.9687C67.3538 43.1319 67.4399 43.3329 67.4399 43.5742C67.4399 43.8154 67.3538 44.0212 67.1841 44.1891C67.0144 44.357 66.8137 44.4421 66.5794 44.4421C66.3452 44.4421 66.1468 44.3594 65.9819 44.1891Z" fill="#3E3E3E"/>
<path d="M75.117 43.7326C74.2303 43.2501 73.5347 42.5808 73.0328 41.7246C72.5285 40.8685 72.2775 39.9106 72.2775 38.8511C72.2775 37.7915 72.5285 36.8337 73.0328 35.9775C73.5371 35.1213 74.235 34.452 75.1266 33.9696C76.0181 33.4871 77.0148 33.2458 78.119 33.2458C78.946 33.2458 79.7108 33.383 80.4111 33.655C81.1115 33.927 81.7066 34.3267 82.1942 34.8517L81.4461 35.592C80.5761 34.7217 79.4766 34.2841 78.1501 34.2841C77.2681 34.2841 76.4674 34.4828 75.7456 34.8825C75.0238 35.2822 74.4597 35.8285 74.051 36.5215C73.6423 37.2144 73.4391 37.9925 73.4391 38.8534C73.4391 39.7143 73.6423 40.4924 74.051 41.1854C74.4597 41.8784 75.0238 42.4247 75.7456 42.8244C76.4674 43.2241 77.2681 43.4228 78.1501 43.4228C79.4862 43.4228 80.5856 42.9829 81.4461 42.1007L82.1942 42.8409C81.7066 43.366 81.1091 43.7681 80.404 44.0448C79.6989 44.3238 78.9317 44.461 78.1047 44.461C77.0004 44.461 76.0061 44.2198 75.1194 43.7373L75.117 43.7326Z" fill="#3E3E3E"/>
<path d="M89.5223 43.7254C88.626 43.2382 87.9257 42.5665 87.4214 41.7175C86.917 40.866 86.6661 39.9106 86.6661 38.851C86.6661 37.7914 86.917 36.836 87.4214 35.9845C87.9257 35.1331 88.626 34.4638 89.5223 33.9766C90.4186 33.4894 91.4177 33.2434 92.5219 33.2434C93.6261 33.2434 94.6204 33.4846 95.5072 33.9671C96.3939 34.4496 97.0918 35.1189 97.6009 35.9751C98.11 36.8312 98.3658 37.7891 98.3658 38.8486C98.3658 39.9082 98.11 40.8684 97.6009 41.7222C97.0918 42.5784 96.3939 43.2477 95.5072 43.7301C94.6204 44.2126 93.6261 44.4539 92.5219 44.4539C91.4177 44.4539 90.4186 44.2103 89.5223 43.7207V43.7254ZM94.9096 42.8267C95.6195 42.4317 96.1764 41.8877 96.5803 41.1877C96.9843 40.49 97.185 39.7095 97.185 38.8486C97.185 37.9877 96.9843 37.2073 96.5803 36.5096C96.1764 35.8119 95.6195 35.2655 94.9096 34.8706C94.1998 34.478 93.4039 34.2793 92.5219 34.2793C91.6399 34.2793 90.8416 34.4756 90.127 34.8706C89.4099 35.2655 88.8483 35.8095 88.4395 36.5096C88.0308 37.2073 87.8277 37.9877 87.8277 38.8486C87.8277 39.7095 88.0308 40.49 88.4395 41.1877C88.8483 41.8854 89.4099 42.4317 90.127 42.8267C90.844 43.2193 91.6423 43.418 92.5219 43.418C93.4015 43.418 94.1974 43.2217 94.9096 42.8267Z" fill="#3E3E3E"/>
<path d="M104.188 33.3381H108.725C109.903 33.3381 110.943 33.5723 111.844 34.0382C112.745 34.5065 113.445 35.1569 113.945 35.9917C114.444 36.8266 114.693 37.7797 114.693 38.8511C114.693 39.9225 114.444 40.8756 113.945 41.7105C113.445 42.5454 112.745 43.1958 111.844 43.664C110.943 44.1323 109.903 44.3641 108.725 44.3641H104.188V33.3381ZM108.662 43.3542C109.638 43.3542 110.493 43.1626 111.225 42.7795C111.956 42.3964 112.525 41.8666 112.929 41.1878C113.333 40.5114 113.534 39.7309 113.534 38.8488C113.534 37.9666 113.333 37.1861 112.929 36.5097C112.525 35.8333 111.958 35.3035 111.225 34.918C110.493 34.5349 109.638 34.3433 108.662 34.3433H105.369V43.3519H108.662V43.3542Z" fill="#3E3E3E"/>
<path d="M128.398 43.3541V44.3617H120.52V33.3357H128.159V34.3432H121.696V38.2645H127.458V39.2578H121.696V43.3518H128.398V43.3541Z" fill="#3E3E3E"/>
<path d="M141.959 44.3617L139.411 40.8188C139.125 40.8495 138.828 40.8661 138.52 40.8661H135.528V44.3617H134.349V33.3357H138.52C139.942 33.3357 141.056 33.6715 141.861 34.3432C142.667 35.0149 143.071 35.9396 143.071 37.1151C143.071 37.976 142.851 38.7044 142.411 39.2957C141.971 39.8893 141.343 40.3174 140.525 40.5799L143.248 44.3593H141.959V44.3617ZM141.02 39.149C141.603 38.6666 141.895 37.9902 141.895 37.1174C141.895 36.2447 141.603 35.5399 141.02 35.0622C140.437 34.5845 139.593 34.3456 138.489 34.3456H135.528V39.8728H138.489C139.593 39.8728 140.437 39.6315 141.02 39.149Z" fill="#3E3E3E"/>
</g>
<defs>
<clipPath id="clip0_41_218">
<rect width="143.269" height="50" fill="white"/>
</clipPath>
</defs>
</svg>
