<svg width="19" height="18" viewBox="0 0 19 18" fill="none" xmlns="http://www.w3.org/2000/svg">
<g clip-path="url(#clip0_41_239)">
<path d="M10.133 13.9886C9.89142 13.9644 9.72057 14.0976 9.54971 14.2429C8.8015 14.8725 8.04739 15.5021 7.29917 16.1318C6.92212 16.4466 6.52739 16.3316 6.3801 15.8533C5.90289 14.2913 5.43747 12.7294 4.96615 11.1674C4.90723 10.9797 4.82475 10.7981 4.7953 10.6104C4.75995 10.3925 4.62444 10.3016 4.44181 10.2351C3.10444 9.72651 1.76708 9.21191 0.429714 8.70336C0.135141 8.58228 -0.0121463 8.40671 -0.000363316 8.14032C0.0114196 7.85578 0.176381 7.70443 0.423823 7.60756C3.44026 6.4149 6.4508 5.22223 9.46134 4.02957C12.2775 2.90955 15.0936 1.78954 17.9156 0.67558C18.0393 0.627147 18.1689 0.57266 18.2985 0.530281C18.7227 0.39709 19.0703 0.724013 18.982 1.17202C18.9113 1.52921 18.8406 1.89246 18.7699 2.24965C18.4753 3.69659 18.1807 5.14353 17.8861 6.59047C17.4679 8.64887 17.0496 10.7073 16.6313 12.7657C16.3485 14.1521 16.0775 15.5385 15.7947 16.9249C15.7711 17.0399 15.7358 17.161 15.6768 17.2578C15.5001 17.5303 15.1879 17.5666 14.8992 17.3608C14.5044 17.0702 14.1097 16.7735 13.715 16.4769C12.6958 15.714 11.6765 14.9573 10.6632 14.1945C10.5041 14.0734 10.3392 13.9583 10.1271 13.9765L10.133 13.9886ZM5.73793 10.2229C5.74971 10.2835 5.7615 10.3743 5.78506 10.4651C5.87343 10.7981 5.9677 11.1371 6.06196 11.4701C6.26816 12.2148 6.48026 12.9655 6.68646 13.7101C6.72181 13.8312 6.77483 13.916 6.91623 13.9039C7.05173 13.8978 7.09886 13.8009 7.11654 13.692C7.18723 13.1955 7.25793 12.7051 7.30506 12.2087C7.35809 11.6941 7.51126 11.24 7.91188 10.895C8.16522 10.677 8.40088 10.4288 8.64243 10.1927C9.61452 9.26639 10.5866 8.34011 11.5646 7.41383C12.4542 6.56625 13.3438 5.71262 14.2393 4.85898C14.4337 4.67131 14.6282 4.48968 14.8226 4.302C14.8874 4.24146 14.9522 4.17487 14.8756 4.07195C14.8049 3.97508 14.7283 4.00535 14.6517 4.05984C14.6341 4.07195 14.6223 4.078 14.6046 4.09011C13.1553 5.00428 11.7119 5.92451 10.2626 6.83869C8.90165 7.69837 7.54661 8.55806 6.18568 9.41775C5.90289 9.59332 5.7615 9.84759 5.74382 10.2169L5.73793 10.2229Z" fill="url(#paint0_linear_41_239)"/>
</g>
<defs>
<linearGradient id="paint0_linear_41_239" x1="5.19144" y1="6.09995" x2="17.8968" y2="6.47543" gradientUnits="userSpaceOnUse">
<stop stop-color="#336AEA"/>
<stop offset="0.5" stop-color="#33B7A1"/>
<stop offset="1" stop-color="#339EEA"/>
</linearGradient>
<clipPath id="clip0_41_239">
<rect width="19" height="17" fill="white" transform="translate(0 0.5)"/>
</clipPath>
</defs>
</svg>
